<?xml version="1.0" standalone="no"?><svg xmlns="http://www.w3.org/2000/svg" viewBox="0 0 1440 320"><path fill="#ffa759" fill-opacity="1" d="M0,160L20,149.3C40,139,80,117,120,96C160,75,200,53,240,69.3C280,85,320,139,360,160C400,181,440,171,480,192C520,213,560,267,600,250.7C640,235,680,149,720,133.3C760,117,800,171,840,165.3C880,160,920,96,960,106.7C1000,117,1040,203,1080,245.3C1120,288,1160,288,1200,250.7C1240,213,1280,139,1320,138.7C1360,139,1400,213,1420,250.7L1440,288L1440,320L1420,320C1400,320,1360,320,1320,320C1280,320,1240,320,1200,320C1160,320,1120,320,1080,320C1040,320,1000,320,960,320C920,320,880,320,840,320C800,320,760,320,720,320C680,320,640,320,600,320C560,320,520,320,480,320C440,320,400,320,360,320C320,320,280,320,240,320C200,320,160,320,120,320C80,320,40,320,20,320L0,320Z"></path></svg>